<svg width="40" height="24" viewBox="0 0 40 24" fill="none" xmlns="http://www.w3.org/2000/svg">
<path d="M9.56994 18.82C9.37994 18.82 9.18994 18.75 9.03994 18.6L2.96994 12.53C2.67994 12.24 2.67994 11.76 2.96994 11.47L9.03994 5.4C9.32994 5.11 9.80994 5.11 10.0999 5.4C10.3899 5.69 10.3899 6.17 10.0999 6.46L4.55994 12L10.0999 17.54C10.3899 17.83 10.3899 18.31 10.0999 18.6C9.95994 18.75 9.75994 18.82 9.56994 18.82Z" fill="white" stroke="white"/>
<path d="M37.527 13H4.473C3.66776 13 3 12.5467 3 12C3 11.4533 3.66776 11 4.473 11H37.527C38.3322 11 39 11.4533 39 12C39 12.5467 38.3322 13 37.527 13Z" fill="white" stroke="white"/>
</svg>
