<svg width="24" height="28" viewBox="0 0 24 28" fill="none" xmlns="http://www.w3.org/2000/svg">
<path d="M19.3152 14.4616H11.5885C11.271 14.4616 11.0078 14.1984 11.0078 13.881C11.0078 13.5635 11.271 13.3003 11.5885 13.3003H19.3152C19.6326 13.3003 19.8958 13.5635 19.8958 13.881C19.8958 14.1984 19.6326 14.4616 19.3152 14.4616Z" fill="#147DBF"/>
<path d="M15.4518 14.462C15.1343 14.462 14.8711 14.1988 14.8711 13.8813V12.5807C14.8711 12.2632 15.1343 12 15.4518 12C15.7692 12 16.0324 12.2632 16.0324 12.5807V13.8813C16.0324 14.1988 15.7692 14.462 15.4518 14.462Z" fill="#147DBF"/>
<path d="M11.5807 20.4699C11.2632 20.4699 11 20.2066 11 19.8892C11 19.5718 11.2632 19.3085 11.5807 19.3085C14.4608 19.3085 16.8066 16.8698 16.8066 13.8658C16.8066 13.5484 17.0699 13.2852 17.3873 13.2852C17.7047 13.2852 17.968 13.5484 17.968 13.8658C17.968 17.5124 15.1034 20.4699 11.5807 20.4699Z" fill="#147DBF"/>
<path d="M19.3243 20.4698C17.7991 20.4698 16.3823 19.7111 15.3449 18.3253C15.1513 18.0698 15.2055 17.7059 15.461 17.5124C15.7165 17.3188 16.0804 17.373 16.2739 17.6285C17.0946 18.7124 18.1785 19.3085 19.3321 19.3085C19.6495 19.3085 19.9128 19.5717 19.9128 19.8892C19.9128 20.2066 19.6418 20.4698 19.3243 20.4698Z" fill="#147DBF"/>
<path d="M15 25.75H9C3.57 25.75 1.25 23.43 1.25 18V12C1.25 6.57 3.57 4.25 9 4.25H15C20.43 4.25 22.75 6.57 22.75 12V18C22.75 23.43 20.43 25.75 15 25.75ZM9 5.75C4.39 5.75 2.75 7.39 2.75 12V18C2.75 22.61 4.39 24.25 9 24.25H15C19.61 24.25 21.25 22.61 21.25 18V12C21.25 7.39 19.61 5.75 15 5.75H9Z" fill="#147DBF"/>
<path d="M9.868 16.14H6.22L5.548 18H4.396L7.42 9.684H8.68L11.692 18H10.54L9.868 16.14ZM9.556 15.252L8.044 11.028L6.532 15.252H9.556Z" fill="#147DBF"/>
</svg>
