<svg width="24" height="27" viewBox="0 0 24 27" fill="none" xmlns="http://www.w3.org/2000/svg">
<path d="M23.1834 8.99756C21.8517 3.13805 16.7404 0.5 12.2507 0.5C12.2507 0.5 12.2507 0.5 12.238 0.5C7.76094 0.5 2.63703 3.12537 1.30533 8.98488C-0.178576 15.5293 3.82923 21.0717 7.45655 24.5595C8.80094 25.8532 10.5258 26.5 12.2507 26.5C13.9756 26.5 15.7005 25.8532 17.0322 24.5595C20.6595 21.0717 24.6673 15.542 23.1834 8.99756ZM12.2507 15.3517C10.0439 15.3517 8.25557 13.5634 8.25557 11.3566C8.25557 9.14976 10.0439 7.36146 12.2507 7.36146C14.4575 7.36146 16.2458 9.14976 16.2458 11.3566C16.2458 13.5634 14.4575 15.3517 12.2507 15.3517Z" fill="#147DBF"/>
</svg>
