<svg width="23" height="23" viewBox="0 0 23 23" fill="none" xmlns="http://www.w3.org/2000/svg">
<path d="M11.4999 13.5794C9.45864 13.5794 7.79114 11.9215 7.79114 9.87068C7.79114 7.81984 9.45864 6.17151 11.4999 6.17151C13.5411 6.17151 15.2086 7.82943 15.2086 9.88026C15.2086 11.9311 13.5411 13.5794 11.4999 13.5794ZM11.4999 7.60901C10.2541 7.60901 9.22864 8.62484 9.22864 9.88026C9.22864 11.1357 10.2445 12.1515 11.4999 12.1515C12.7553 12.1515 13.7711 11.1357 13.7711 9.88026C13.7711 8.62484 12.7457 7.60901 11.4999 7.60901Z" fill="#147DBF"/>
<path d="M11.5 21.8115C10.0817 21.8115 8.65374 21.2748 7.54207 20.2111C4.71499 17.4894 1.59082 13.1482 2.76957 7.98275C3.83332 3.2965 7.9254 1.19775 11.5 1.19775C11.5 1.19775 11.5 1.19775 11.5096 1.19775C15.0842 1.19775 19.1762 3.2965 20.24 7.99234C21.4092 13.1578 18.285 17.4894 15.4579 20.2111C14.3462 21.2748 12.9183 21.8115 11.5 21.8115ZM11.5 2.63525C8.71124 2.63525 5.12707 4.12067 4.17832 8.299C3.14332 12.8128 5.97999 16.7036 8.54832 19.1665C10.2062 20.7669 12.8033 20.7669 14.4612 19.1665C17.02 16.7036 19.8567 12.8128 18.8408 8.299C17.8825 4.12067 14.2887 2.63525 11.5 2.63525Z" fill="#147DBF"/>
</svg>
