<svg width="25" height="24" viewBox="0 0 25 24" fill="none" xmlns="http://www.w3.org/2000/svg">
<path d="M7.06 8.63006C7.25 8.63006 7.44 8.70006 7.59 8.85006C7.88 9.14006 7.88 9.62006 7.59 9.91006L5.55999 11.9401L7.59 13.9701C7.88 14.2601 7.88 14.7401 7.59 15.0301C7.3 15.3201 6.82 15.3201 6.53 15.0301L3.96999 12.4701C3.67999 12.1801 3.67999 11.7001 3.96999 11.4101L6.53 8.85006C6.68 8.70006 6.87 8.63006 7.06 8.63006Z" fill="#FF5757"/>
<path d="M4.56999 11.1899L14.74 11.1899C15.15 11.1899 15.49 11.5299 15.49 11.9399C15.49 12.3499 15.15 12.6899 14.74 12.6899L4.56999 12.6899C4.15999 12.6899 3.81999 12.3499 3.81999 11.9399C3.81999 11.5299 4.15999 11.1899 4.56999 11.1899Z" fill="#FF5757"/>
<path d="M12.74 3.25C17.89 3.25 21.49 6.85 21.49 12C21.49 17.15 17.89 20.75 12.74 20.75C12.33 20.75 11.99 20.41 11.99 20C11.99 19.59 12.33 19.25 12.74 19.25C17.01 19.25 19.99 16.27 19.99 12C19.99 7.73 17.01 4.75 12.74 4.75C12.33 4.75 11.99 4.41 11.99 4C11.99 3.59 12.33 3.25 12.74 3.25Z" fill="#FF5757"/>
</svg>
