<svg width="28" height="28" viewBox="0 0 28 28" fill="none" xmlns="http://www.w3.org/2000/svg">
<path d="M10.675 8.73828C10.0217 8.73828 9.50836 9.26328 9.50836 9.90495C9.50836 10.5466 10.0334 11.0716 10.675 11.0716C11.3167 11.0716 11.8417 10.5466 11.8417 9.90495C11.8417 9.26328 11.3167 8.73828 10.675 8.73828Z" fill="white"/>
<path d="M25.0366 5.87992C24.0566 3.60492 21.8983 2.33325 18.8883 2.33325H9.11165C5.36665 2.33325 2.33331 5.36659 2.33331 9.11159V18.8883C2.33331 21.8983 3.60498 24.0566 5.87998 25.0366C6.10165 25.1299 6.35831 25.0716 6.52165 24.9083L24.9083 6.52159C25.0833 6.34659 25.1416 6.08992 25.0366 5.87992ZM12.285 14.2799C11.83 14.7233 11.235 14.9333 10.64 14.9333C10.045 14.9333 9.44998 14.7116 8.99498 14.2799C7.80498 13.1599 6.49831 11.3749 6.99998 9.25159C7.44331 7.32658 9.14665 6.46325 10.64 6.46325C12.1333 6.46325 13.8366 7.32659 14.28 9.26325C14.77 11.3749 13.4633 13.1599 12.285 14.2799Z" fill="white"/>
<path d="M22.715 23.9516C22.9717 24.2083 22.9367 24.6283 22.6217 24.8033C21.595 25.3749 20.3467 25.6666 18.8884 25.6666H9.11169C8.77335 25.6666 8.63335 25.2699 8.86669 25.0366L15.9134 17.9899C16.1467 17.7566 16.5084 17.7566 16.7417 17.9899L22.715 23.9516Z" fill="white"/>
<path d="M25.6667 9.11163V18.8883C25.6667 20.3466 25.375 21.6066 24.8033 22.6216C24.6283 22.9366 24.2083 22.96 23.9517 22.715L17.9783 16.7416C17.745 16.5083 17.745 16.1466 17.9783 15.9133L25.025 8.86663C25.27 8.63329 25.6667 8.77329 25.6667 9.11163Z" fill="white"/>
</svg>
