<svg width="27" height="28" viewBox="0 0 27 28" fill="none" xmlns="http://www.w3.org/2000/svg">
<path d="M24.75 10.625V17.375C24.75 20.1875 24.1875 22.1562 22.9275 23.4275L15.75 16.25L24.4463 7.55371C24.6488 8.44246 24.75 9.45496 24.75 10.625Z" stroke="white" stroke-width="1.6875" stroke-linecap="round" stroke-linejoin="round"/>
<path d="M24.4463 7.55375L7.05374 24.9462C3.66749 24.17 2.25 21.83 2.25 17.375V10.625C2.25 5 4.5 2.75 10.125 2.75H16.875C21.33 2.75 23.67 4.1675 24.4463 7.55375Z" stroke="white" stroke-width="1.6875" stroke-linecap="round" stroke-linejoin="round"/>
<path d="M22.9275 23.4275C21.6563 24.6875 19.6875 25.25 16.875 25.25H10.125C8.955 25.25 7.94249 25.1487 7.05374 24.9462L15.75 16.25L22.9275 23.4275Z" stroke="white" stroke-width="1.6875" stroke-linecap="round" stroke-linejoin="round"/>
<path d="M7.01999 9.47756C7.78499 6.18131 12.735 6.18131 13.5 9.47756C13.9388 11.4126 12.7237 13.0551 11.655 14.0676C10.8787 14.8101 9.65251 14.8101 8.86501 14.0676C7.79626 13.0551 6.56999 11.4126 7.01999 9.47756Z" stroke="white" stroke-width="1.6875"/>
<path d="M10.2314 10.2874H10.2415" stroke="white" stroke-width="2.25" stroke-linecap="round" stroke-linejoin="round"/>
</svg>
