<svg width="30" height="29" viewBox="0 0 30 29" fill="none" xmlns="http://www.w3.org/2000/svg">
<path d="M15 0.83667C11.4147 0.83667 8.5 3.75448 8.5 7.34352C8.5 10.8641 11.2505 13.7134 14.8358 13.8367C14.9453 13.823 15.0547 13.823 15.1368 13.8367C15.1642 13.8367 15.1779 13.8367 15.2053 13.8367C15.2189 13.8367 15.2189 13.8367 15.2326 13.8367C18.7358 13.7134 21.4863 10.8641 21.5 7.34352C21.5 3.75448 18.5853 0.83667 15 0.83667Z" fill="white"/>
<path d="M21.7733 17.6967C18.0533 15.2167 11.9867 15.2167 8.24001 17.6967C6.54668 18.83 5.61334 20.3633 5.61334 22.0033C5.61334 23.6433 6.54668 25.1633 8.22668 26.2833C10.0933 27.5367 12.5467 28.1633 15 28.1633C17.4533 28.1633 19.9067 27.5367 21.7733 26.2833C23.4533 25.15 24.3867 23.63 24.3867 21.9767C24.3733 20.3367 23.4533 18.8167 21.7733 17.6967Z" fill="white"/>
</svg>
