<svg width="29" height="30" viewBox="0 0 29 30" fill="none" xmlns="http://www.w3.org/2000/svg">
<path d="M11.2496 18.2625L13.0621 20.075L17.8954 15.2417" stroke="white" stroke-width="1.8125" stroke-linecap="round" stroke-linejoin="round"/>
<path d="M12.0833 7.75008H16.9167C19.3333 7.75008 19.3333 6.54175 19.3333 5.33341C19.3333 2.91675 18.125 2.91675 16.9167 2.91675H12.0833C10.875 2.91675 9.66666 2.91675 9.66666 5.33341C9.66666 7.75008 10.875 7.75008 12.0833 7.75008Z" stroke="white" stroke-width="1.8125" stroke-miterlimit="10" stroke-linecap="round" stroke-linejoin="round"/>
<path d="M19.3333 5.35742C23.3571 5.57492 25.375 7.06117 25.375 12.5833V19.8333C25.375 24.6666 24.1667 27.0833 18.125 27.0833H10.875C4.83333 27.0833 3.625 24.6666 3.625 19.8333V12.5833C3.625 7.07326 5.64292 5.57492 9.66667 5.35742" stroke="white" stroke-width="1.8125" stroke-miterlimit="10" stroke-linecap="round" stroke-linejoin="round"/>
</svg>
