
<svg width="29" height="30" viewBox="0 0 29 30" fill="none" xmlns="http://www.w3.org/2000/svg">
<path d="M17.3396 2.91675H11.6604C10.4038 2.91675 9.37668 3.93175 9.37668 5.18841V6.32425C9.37668 7.58091 10.3917 8.59591 11.6483 8.59591H17.3396C18.5963 8.59591 19.6113 7.58091 19.6113 6.32425V5.18841C19.6233 3.93175 18.5963 2.91675 17.3396 2.91675Z" fill="white"/>
<path d="M20.8317 6.3242C20.8317 8.24545 19.2609 9.81629 17.3396 9.81629H11.6605C9.73921 9.81629 8.16838 8.24545 8.16838 6.3242C8.16838 5.64754 7.44338 5.22462 6.83921 5.53879C5.13546 6.44504 3.97546 8.24545 3.97546 10.3117V21.6821C3.97546 24.6546 6.40421 27.0834 9.37671 27.0834H19.6234C22.5959 27.0834 25.0246 24.6546 25.0246 21.6821V10.3117C25.0246 8.24545 23.8646 6.44504 22.1609 5.53879C21.5567 5.22462 20.8317 5.64754 20.8317 6.3242ZM18.5359 15.8821L13.7025 20.7155C13.5213 20.8967 13.2917 20.9813 13.0621 20.9813C12.8325 20.9813 12.603 20.8967 12.4217 20.7155L10.6092 18.903C10.2588 18.5525 10.2588 17.9725 10.6092 17.6221C10.9596 17.2717 11.5396 17.2717 11.89 17.6221L13.0621 18.7942L17.255 14.6013C17.6055 14.2509 18.1855 14.2509 18.5359 14.6013C18.8863 14.9517 18.8863 15.5317 18.5359 15.8821Z" fill="white"/>
</svg>
